<svg xmlns="http://www.w3.org/2000/svg" viewBox="0 0 980 1080"><defs><style>.cls-1{fill:#fff;}.cls-2{fill:#f57c26;}.cls-2,.cls-3,.cls-4,.cls-5,.cls-6{stroke:#1b5659;stroke-miterlimit:10;}.cls-3{fill:#e5572b;}.cls-4{fill:#1b5659;}.cls-4,.cls-6{stroke-width:11px;}.cls-5,.cls-6{fill:#71c6d0;}.cls-5{stroke-width:10px;}</style></defs><g id="Layer_2" data-name="Layer 2"><g id="Layer_1-2" data-name="Layer 1"><rect class="cls-1" width="980" height="1080" rx="127.94"/><rect class="cls-2" x="97.5" y="258.5" width="785" height="415"/><rect class="cls-3" x="67.5" y="299.5" width="845" height="331"/><path class="cls-4" d="M727.5,903.5h-304a49,49,0,0,1-49-49v-575a49,49,0,0,1,49-49h304a49,49,0,0,1,49,49v575A49,49,0,0,1,727.5,903.5Z"/><circle class="cls-5" cx="575.24" cy="844.23" r="35.2"/><path class="cls-6" d="M727.53,787.5H421.47a26,26,0,0,1-26-26v-483a26,26,0,0,1,26-26H727.53a26,26,0,0,1,26,26v483A26,26,0,0,1,727.53,787.5Z"/></g></g></svg>