<svg id="Layer_1" data-name="Layer 1" xmlns="http://www.w3.org/2000/svg" xmlns:xlink="http://www.w3.org/1999/xlink" viewBox="0 0 1920 1080"><defs><style>.cls-1{fill:url(#linear-gradient);}.cls-2{fill:#e5572b;}.cls-3{fill:#71c6d0;}.cls-4{fill:#22676e;}</style><linearGradient id="linear-gradient" x1="959.97" y1="98.58" x2="962.42" y2="1169.27" gradientUnits="userSpaceOnUse"><stop offset="0" stop-color="#fff"/><stop offset="0.27" stop-color="#fffefc"/><stop offset="0.44" stop-color="#fffaf4"/><stop offset="0.58" stop-color="#fef5e6"/><stop offset="0.7" stop-color="#fdecd1"/><stop offset="0.81" stop-color="#fce1b7"/><stop offset="0.91" stop-color="#fad497"/><stop offset="1" stop-color="#f9c675"/></linearGradient></defs><rect class="cls-1" x="-0.68" y="7.95" width="1923.37" height="1080"/><circle class="cls-2" cx="570.1" cy="1016.29" r="109.62"/><path class="cls-3" d="M1131.11,1037.43c-2.66-2.49-179.23-70.45-179.23-70.45l-72.74-7.48L552,1088,882.18,983.83Z"/><polygon class="cls-3" points="1361.64 878.31 1507.68 868.77 1597.56 914.11 1685.38 903.97 1742.58 924.25 1824.28 932.6 1907 914.11 1937.64 934.39 1957.05 960.64 1446.41 922.46 1361.64 878.31"/><polygon class="cls-3" points="-138.55 981.04 -4.82 849.63 139.16 915.34 219.16 1030.43 -128.23 1007.32 -138.55 981.04"/><path class="cls-3" d="M407.38,1084.52c2.18-2.85,147.1-80.52,147.1-80.52l59.7-8.55,322.77,203L611.68,1023.26Z"/><polygon class="cls-3" points="250.07 944.65 345.96 914.71 453.83 974.92 624.52 1117.87 370.47 964.23 250.07 944.65"/><path class="cls-4" d="M-205,951.82V902.39l94.24,62.52,44.93-24,48-30.54,93.27-47.7L121,837l88.85,26.17,51.06,42.17,51.06-16,27.58,18.9,49,32,34,33,85.79,64,98-29.08,311.15,187.17-213.11,16.39s-1033.33,55.26-1029.35,26.18S-205,951.82-205,951.82Z"/><polygon class="cls-3" points="1432.24 923.16 1344.83 854.32 1209.52 897.08 976.66 1025.75 1299.97 909.91 1432.24 923.16"/><path class="cls-4" d="M2077.5,1088l1.59-126.74-45.38-28.89-76,20.74-98.11-6-109.14-21.5-82.17,10.75L1553,885.29l-149.56-1.74L1328,868.77l-40.76,17.47-72.45,29.56-50.3,30.49-126.79,59.12-144.9-26.87L417,1132.68l374.46-42.48s1085.85-3.28,1098.22-2.25C1898.22,1088.66,2077.5,1088,2077.5,1088Z"/></svg>