<svg id="Layer_1" data-name="Layer 1" xmlns="http://www.w3.org/2000/svg" viewBox="0 0 1920 1080"><defs><style>.cls-1{fill:#e5572b;}.cls-2{fill:#f57c26;}.cls-3,.cls-4{fill:#1b5659;}.cls-4,.cls-5{stroke:#71c6d0;stroke-miterlimit:10;}.cls-5{fill:#22676e;}</style></defs><polygon class="cls-1" points="115.79 1273.14 -118.91 1145.34 -125.61 878.14 102.39 738.84 337.09 866.64 343.79 1133.74 115.79 1273.14"/><polygon class="cls-2" points="484.49 1267.24 257.39 1444.84 21.79 1278.84 13.19 935.14 240.19 757.54 475.89 923.64 484.49 1267.24"/><polygon class="cls-1" points="29.59 884.44 369.19 826.04 653.09 1021.44 597.39 1275.04 257.79 1333.44 -26.11 1138.04 29.59 884.44"/><polygon class="cls-2" points="692.87 1646.32 375.27 1382.92 285.67 980.12 513.77 840.72 831.37 1104.22 920.87 1507.02 692.87 1646.32"/><ellipse class="cls-3" cx="630.05" cy="1144.01" rx="204.84" ry="847.39" transform="translate(-577.91 1640.56) rotate(-83.5)"/><path class="cls-4" d="M506.29,686c-.61-2.53-19.93-6.28-19.93-6.28s3.55-1.64,0-5.39-46.78-9.62-46.78-9.62v-2.94c0-2.93,5.54-1.36,7.62-5.39.87-1.64-2.34-2.66-7.54-3.28-.43-1.36-.86-3.68.35-4.84,1.39-1.44-12-3.07-17.07-3.62l-3.81-36.72-4.59,36.72a149,149,0,0,0-16,2s-1.13,6.28-2.95,7.57h0c-4.59.62-7.45,1.44-7.45,2.26,0,2.59,4.42,3.75,6,4.09.26.07.52.27.52.48v3.82a224.82,224.82,0,0,1-27.38,4.57c-13.34,1.23-19.06,6.35-19.4,6.69-1.39,1.09-1.39,4.51-.61,5.12-6.85,1.37-12.3,2.18-15.16,2.87-2.6.61-4,2.59-3,4.43.78,1.64-.26,1.44,5.72,5.12,4.08,2.53,17.85,4.57,17.85,4.57l2.34.41s-6.76,1-5.89,5.53c.6,3.14,32.14,9.08,32.14,9.08s14.82,62.38,16.64,83.4c.95,10.3-.87,41.29-.87,41.29s-.26,36.51-2.34,51.93c-1.13,8.33-18.71,153.29-18.71,153.29h93.65l-15.76-86.33L440.88,837.93s-1.39-35.7-.87-40.68c4.68-49,16.37-84.69,16.37-84.69L471,709.62s20.18-4.57,17.24-8.32-10.57-4-10.57-4A110,110,0,0,0,495.55,695C505.42,692.9,506.81,688.53,506.29,686Z"/><path class="cls-5" d="M494.68,685.07c-.52-2.34-17.24-5.88-17.24-5.88s3-1.6,0-5.08-40.55-9-40.55-9v-2.73c0-2.74,4.77-1.27,6.59-5.08.69-1.54-2-2.47-6.5-3.07-.35-1.27-.7-3.48.34-4.61,1.22-1.34-10.31-2.88-14.81-3.41l-3.29-34.61-4,34.61a128.85,128.85,0,0,0-14,1.8s-.95,6-2.51,7.15h0c-3.9.6-6.5,1.34-6.5,2.07,0,2.47,3.81,3.54,5.11,3.88a.52.52,0,0,1,.44.46v3.61a186.71,186.71,0,0,1-23.66,4.34c-11.52,1.21-16.46,6-16.8,6.28-1.22,1-1.13,4.28-.52,4.81-5.9,1.34-10.66,2-13.17,2.68-2.26.6-3.47,2.47-2.69,4.2.69,1.54-.26,1.41,4.94,4.81,3.55,2.34,15.42,4.35,15.42,4.35l2,.4s-5.8,1-5,5.21c.52,2.94,27.81,8.55,27.81,8.55s12.82,58.79,14.47,78.63c.78,9.69-.78,38.88-.78,38.88s-.26,34.41-2,49c-1,7.81-16.21,144.43-16.21,144.43h81l-13.69-81.37-11.17-112S436.54,794.7,437,790c4.07-46.16,14.21-79.76,14.21-79.76l12.65-2.74s17.5-4.34,14.9-7.88-9.1-3.74-9.1-3.74a90.86,90.86,0,0,0,15.42-2.14C493.9,691.55,495.2,687.41,494.68,685.07Z"/></svg>