<svg id="Layer_1" data-name="Layer 1" xmlns="http://www.w3.org/2000/svg" xmlns:xlink="http://www.w3.org/1999/xlink" viewBox="0 0 1920 1080"><defs><style>.cls-1{fill:none;}.cls-2{fill:#e5572b;}.cls-3{fill:#f57c26;}.cls-4{fill:#71c6d0;}.cls-5{fill:#22676e;}.cls-6{fill:url(#linear-gradient);}.cls-7{clip-path:url(#clip-path);}.cls-8{clip-path:url(#clip-path-2);}</style><linearGradient id="linear-gradient" x1="958.97" y1="97.18" x2="961.01" y2="989.77" gradientUnits="userSpaceOnUse"><stop offset="0" stop-color="#fff"/><stop offset="0.16" stop-color="#fffdfb"/><stop offset="0.31" stop-color="#fef9f0"/><stop offset="0.45" stop-color="#fef1dd"/><stop offset="0.59" stop-color="#fce6c3"/><stop offset="0.72" stop-color="#fbd8a1"/><stop offset="0.86" stop-color="#f9c778"/><stop offset="0.87" stop-color="#f9c675"/></linearGradient><clipPath id="clip-path"><rect class="cls-1" x="-339.4" y="566" width="2564.8" height="1126.5"/></clipPath><clipPath id="clip-path-2"><rect class="cls-1" x="-339.38" y="567.83" width="2564.68" height="1126.45"/></clipPath><symbol id="Homepagebackground" data-name="Homepagebackground" viewBox="0 0 2987.4 1474.56"><circle class="cls-2" cx="1209.4" cy="149.9" r="66"/><path class="cls-3" d="M1479.6,343.4l-72.3,49.5-21.6,129.3s-70.7-1.7-83.2-10.6c-37.6-26.9-66.3-140-86.5-142.5-188.2-24-227.8-124.4-244.3-138.9s-278.6-10.6-278.6-10.6l-92.6-58.1-104.9-2.6L262.4,246.1,872.2,628.6l43,64.6,2049.6-56.8L2947.1,327c.7,18.2-112.1-44.2-214.2-108.8l-271.5-68.3-227.9,54.5-198.1-31.7L1894,237.4s-38.7,0-42.9,2.6-93,21.1-93,21.1-42.4,61.6-49.8,66.9-55.3,21.3-55.3,21.3l-90.7,3"/><path class="cls-4" d="M1149.3,402.7c12.9,25.7,90,85.3,90,85.3.4.4,40.8,27.1,41.1,27.6l15.8,27.7s28.2,22,48.6,25.1l60.3-17.2c16.9-6.8,19.2-7.9,19.2-7.9l65.6-100.8,95.8-38.8,54.5-48.2a4,4,0,0,1,2.7-2c21.4-4.8,206.6-46.6,207.8-47.8l89-62.5c1.3-1.2,110.5-10.6,112.3-11.3l126.3,43.5c6.9-2.7,174.6-77.3,178.9-72.4l141.6,29.6c291.7,170.2,462.8-159.2,462.8-156.9l25.8,575.5c.1,2.7-916.4-21.3-918.5-19.2l-55.8,56.6c-2.9,3-7.6,4.7-12.4,4.6L73.8,667.1c-8.2-.1-14.9-5.2-15-11.6C57.5,581,50.1,164.2,48.7,89.2c-.1-6.4,6.4-11.7,14.8-11.9,36.2-.9,49.7,22.7,73.2,22,3.7-.1,84.1-25.2,87-23.4l137,84.5a11,11,0,0,1,3.4,3l35,43.4a14.56,14.56,0,0,0,5.3,4L495,251.5a19.06,19.06,0,0,0,12.9.9l49.6-14a18.82,18.82,0,0,1,5.3-.7c11.5,0,55.3.3,60.8,2.6,5.8,2.4,118,18.3,135.4,20.8a15.21,15.21,0,0,1,4.3,1.2c12.9,5.2,82.3,33.5,92.3,38.3,9.4,4.5,65.7,53.3,82,67.5a17.27,17.27,0,0,0,11.1,4l100.5,1.7a20,20,0,0,1,4.9.7"/><path class="cls-5" d="M1218.6,507.6l72.1,126.1c.5-.3,106.5-13.2,107-13.5,0,0,92.9-116.5,89.2-111,0,0,50-29.3,55.7-35.3,2.3-2.4,120.6-28.8,123.3-30.7,39.3-27.4,68.5-83.5,86-93a10.24,10.24,0,0,0,2.9-2.6l63.9-84.8a8.94,8.94,0,0,1,2.9-2.6l47.3-26.8c4.1-2.3,305.1,43.7,307.8,48l256.4-47.3C2663.4,264.9,2695.4-13,2950.6,26.2l-32.2,841.9s-8.5,590.3-9.8,592.2l-827.3,14c-1.8,2.7-135.3-16.9-138.2-16.9l-1928,16.9c-5-.1-5.1-620.2-5.2-625.9L0,36.8c-.1-6.9,5.7-12.1,11.5-10.3,37.6,11.2,41.9,22,59.9,27.8,1.5.6,114.3,27.8,115.4,29.2l65,76.4,69.6,36.7L334,275.3c3.3,13.9,49,33.5,52.6,31.6l109.7-56a7.35,7.35,0,0,1,3.8-.9c10,0,54.5.4,59.8,3.7,5.6,3.4,110.5,25.1,130.8,29.2,2.2.4,52.5,40.3,53.9,42.2,10.9,15.6,25.1,32.7,25.1,32.7s38.6,9.9,31.7,6.9c1.6,1.8,18.5-3,20.8-3l80.3-10.9c1,0,58.4,19.5,59.4,19.8l38.5,11.9s84.3,2.5,85.4,4l43.6,37.7c.3.4,39.2,67,39.6,67.4"/><polygon class="cls-1" points="76.7 649.9 1996.7 649.9 1982.8 0 62.8 0 76.7 649.9"/></symbol></defs><rect class="cls-6" x="-1.68" y="6.55" width="1923.37" height="1080"/><g id="Layer_1-2" data-name="Layer 1"><path class="cls-1" d="M732.51,707.92l-.58-.1a24.35,24.35,0,0,1-7.7-3.23c-.79.78-1.6,1.55-2.43,2.3a41.32,41.32,0,0,1,5.3,5.14c2.07.05,4.15,0,6.23-.11,0-.13-.08-.25-.11-.38C733,710.34,732.75,709.13,732.51,707.92Z"/><path class="cls-1" d="M684.16,627.39c-3.18-1.44-6.28-2.75-9.21-3.9,3.31,3.16,6.67,6.28,10.11,9.32Q684.51,630.13,684.16,627.39Z"/><path class="cls-1" d="M612.08,688.78c7.26,7.23,17.14,10.41,27.39,11.65a.93.93,0,0,0,0-.13c-7.49-4.5-15-8.78-22.61-12.5C615.29,688.11,613.68,688.44,612.08,688.78Z"/><path class="cls-1" d="M710.13,694.79a5.51,5.51,0,0,1-1.08,2.34c1.49,0,3-.08,4.48-.09a4.85,4.85,0,0,1,1.16.16l.5-.4c-.6-.67-1.19-1.34-1.75-2Z"/><path class="cls-1" d="M773.68,681.64c3.26,2.48,2.26,9.06-3,9.06H759.21c0,.16,0,.31-.08.46q9.42,5,18.71,10.21a130.81,130.81,0,0,0,17.58-8.44C789,687.29,781.6,684,773.68,681.64Z"/><path class="cls-1" d="M770.26,680.7c-3.26-.82-6.57-1.51-9.92-2.14q-.08,1.07-.21,2.13Z"/><path class="cls-1" d="M753.12,699c-3,3.87-5.71,7.94-8.83,11.69,5.17-.85,10.26-2,15.14-3.31q3.11-.82,6.17-1.77Q759.39,702.23,753.12,699Z"/><path class="cls-1" d="M640,664.36h.13c-2.44-2.84-.21-7.48,3.27-8.08a4.64,4.64,0,0,1,4.77-4.17q4.2,0,8.45-.14c-1.57-2.14-1.54-5.48.63-7.07-3.4-2.29-1.56-9.13,3.18-9.13H673.6c-6.73-6.13-13.24-12.52-19.67-18.94-7.18-1.55-14.6-2.1-21.15,0a13.8,13.8,0,0,0-9.41,11.87c-1.31,12.53,5.66,25.7,14.84,35.91A5.79,5.79,0,0,1,640,664.36Z"/><path class="cls-1" d="M-118.9,66.3V1126.8H2052.9V66.3ZM953.22,796.74c-22.7-4.63-44.48-12.73-65.44-22.51-37.83-17.65-73.51-41.16-110.27-62a174.19,174.19,0,0,1-19,5.7,130.06,130.06,0,0,1-29.17,4,4.51,4.51,0,0,1-1,.8q-2.14,1.24-4.31,2.34c.53,2.36,1.19,4.69,1.92,7a86.43,86.43,0,0,0,24.38,1.76c4.9-.36,6.88,7.14,2.52,9.32-8.6,4.29-17.25,8.51-27,8.85a5.11,5.11,0,0,1-4.82-3.67l-1.53-4.45c-.08.4-.17.79-.25,1.19a100,100,0,0,0-.66,10.1c-.06,6.44-9.95,6.43-10,0,0-2-.08-4.11-.18-6.17-2-1.83-4.06-3.56-6.18-5.23,0,.16-.1.32-.16.47a5.07,5.07,0,0,1-9.14,1.2c-1.57-2.34-3.21-4.63-4.86-6.91-1.92,1.57-4.77,2-6.61-.25a52.9,52.9,0,0,0-7.7-7.64c-1.22-.3-2.44-.63-3.65-1a114.49,114.49,0,0,1-47.72-2.34,5.06,5.06,0,0,1-1.19-9.14A52,52,0,0,1,645.6,711c-18.32-1-36.19-6.49-46.68-22.73a5,5,0,0,1,3-7.35c2.12-.52,4.26-1,6.4-1.48-6.29-1.49-12.52-3.2-18.65-5.22s-3.47-11.66,2.66-9.64a253.46,253.46,0,0,0,41.08,9.51c-12.81-13.22-26.23-35.94-17.65-54.48,7.18-15.52,24.44-16.07,40.75-12.41,9-1,18.32,1.16,26.91,3.71,1.15.34,2.3.71,3.44,1.08a4.06,4.06,0,0,1,5.72.77c.46.56.89,1.13,1.34,1.69,5.18,1.93,10.26,4.13,15.22,6.56,12.62-.32,23.83,7.82,32.46,16.26a5.27,5.27,0,0,1,1,5.72c1.84,1.7,3.6,3.48,5.26,5.33a4.46,4.46,0,0,1,3.21,3.88,46.5,46.5,0,0,1,8.24,16.28c4.41.73,8.82,1.47,13.18,2.43,13.44,3,25.41,8.91,34.48,19.47a5.09,5.09,0,0,1-1,7.85,129.83,129.83,0,0,1-17.17,9.43c53.74,31.26,105.74,67,167.12,79.47C962.19,788.38,959.51,798,953.22,796.74Z"/><path class="cls-1" d="M645.38,720.93c2,.12,4.1.19,6.15.19A39.36,39.36,0,0,0,645.38,720.93Z"/><path class="cls-1" d="M-123.6,46.8v1080H1378.1V46.8ZM953.22,796.74c-22.7-4.63-44.48-12.73-65.44-22.51-37.83-17.65-73.51-41.16-110.27-62a174.19,174.19,0,0,1-19,5.7,130.06,130.06,0,0,1-29.17,4,4.51,4.51,0,0,1-1,.8q-2.14,1.24-4.31,2.34c.53,2.36,1.19,4.69,1.92,7a86.43,86.43,0,0,0,24.38,1.76c4.9-.36,6.88,7.14,2.52,9.32-8.6,4.29-17.25,8.51-27,8.85a5.11,5.11,0,0,1-4.82-3.67l-1.53-4.45c-.08.4-.17.79-.25,1.19a100,100,0,0,0-.66,10.1c-.06,6.44-9.95,6.43-10,0,0-2-.08-4.11-.18-6.17-2-1.83-4.06-3.56-6.18-5.23,0,.16-.1.32-.16.47a5.07,5.07,0,0,1-9.14,1.2c-1.57-2.34-3.21-4.63-4.86-6.91-1.92,1.57-4.77,2-6.61-.25a52.9,52.9,0,0,0-7.7-7.64c-1.22-.3-2.44-.63-3.65-1a114.49,114.49,0,0,1-47.72-2.34,5.06,5.06,0,0,1-1.19-9.14A52,52,0,0,1,645.6,711c-18.32-1-36.19-6.49-46.68-22.73a5,5,0,0,1,3-7.35c2.12-.52,4.26-1,6.4-1.48-6.29-1.49-12.52-3.2-18.65-5.22s-3.47-11.66,2.66-9.64a253.46,253.46,0,0,0,41.08,9.51c-12.81-13.22-26.23-35.94-17.65-54.48,7.18-15.52,24.44-16.07,40.75-12.41,9-1,18.32,1.16,26.91,3.71,1.15.34,2.3.71,3.44,1.08a4.06,4.06,0,0,1,5.72.77c.46.56.89,1.13,1.34,1.69,5.18,1.93,10.26,4.13,15.22,6.56,12.62-.32,23.83,7.82,32.46,16.26a5.27,5.27,0,0,1,1,5.72c1.84,1.7,3.6,3.48,5.26,5.33a4.46,4.46,0,0,1,3.21,3.88,46.5,46.5,0,0,1,8.24,16.28c4.41.73,8.82,1.47,13.18,2.43,13.44,3,25.41,8.91,34.48,19.47a5.09,5.09,0,0,1-1,7.85,129.83,129.83,0,0,1-17.17,9.43c53.74,31.26,105.74,67,167.12,79.47C962.19,788.38,959.51,798,953.22,796.74Z"/><path class="cls-1" d="M684.16,627.39c-3.18-1.44-6.28-2.75-9.21-3.9,3.31,3.16,6.67,6.28,10.11,9.32Q684.51,630.13,684.16,627.39Z"/><path class="cls-1" d="M612.08,688.78c7.26,7.23,17.14,10.41,27.39,11.65a.93.93,0,0,0,0-.13c-7.49-4.5-15-8.78-22.61-12.5C615.29,688.11,613.68,688.44,612.08,688.78Z"/><path class="cls-1" d="M710.13,694.79a5.51,5.51,0,0,1-1.08,2.34c1.49,0,3-.08,4.48-.09a4.85,4.85,0,0,1,1.16.16l.5-.4c-.6-.67-1.19-1.34-1.75-2Z"/><path class="cls-1" d="M770.26,680.7c-3.26-.82-6.57-1.51-9.92-2.14q-.08,1.07-.21,2.13Z"/><path class="cls-1" d="M773.68,681.64c3.26,2.48,2.26,9.06-3,9.06H759.21c0,.16,0,.31-.08.46q9.42,5,18.71,10.21a130.81,130.81,0,0,0,17.58-8.44C789,687.29,781.6,684,773.68,681.64Z"/><path class="cls-1" d="M753.12,699c-3,3.87-5.71,7.94-8.83,11.69,5.17-.85,10.26-2,15.14-3.31q3.11-.82,6.17-1.77Q759.39,702.23,753.12,699Z"/><path class="cls-1" d="M732.51,707.92l-.58-.1a24.35,24.35,0,0,1-7.7-3.23c-.79.78-1.6,1.55-2.43,2.3a41.32,41.32,0,0,1,5.3,5.14c2.07.05,4.15,0,6.23-.11,0-.13-.08-.25-.11-.38C733,710.34,732.75,709.13,732.51,707.92Z"/><path class="cls-1" d="M645.38,720.93c2,.12,4.1.19,6.15.19A39.36,39.36,0,0,0,645.38,720.93Z"/><path class="cls-1" d="M640,664.36h.13c-2.44-2.84-.21-7.48,3.27-8.08a4.64,4.64,0,0,1,4.77-4.17q4.2,0,8.45-.14c-1.57-2.14-1.54-5.48.63-7.07-3.4-2.29-1.56-9.13,3.18-9.13H673.6c-6.73-6.13-13.24-12.52-19.67-18.94-7.18-1.55-14.6-2.1-21.15,0a13.8,13.8,0,0,0-9.41,11.87c-1.31,12.53,5.66,25.7,14.84,35.91A5.79,5.79,0,0,1,640,664.36Z"/><path class="cls-1" d="M710.13,694.79a5.51,5.51,0,0,1-1.08,2.34c1.49,0,3-.08,4.48-.09a4.85,4.85,0,0,1,1.16.16l.5-.4c-.6-.67-1.19-1.34-1.75-2Z"/><path class="cls-1" d="M732.51,707.92l-.58-.1a24.35,24.35,0,0,1-7.7-3.23c-.79.78-1.6,1.55-2.43,2.3a41.32,41.32,0,0,1,5.3,5.14c2.07.05,4.15,0,6.23-.11,0-.13-.08-.25-.11-.38C733,710.34,732.75,709.13,732.51,707.92Z"/><path class="cls-1" d="M684.16,627.39c-3.18-1.44-6.28-2.75-9.21-3.9,3.31,3.16,6.67,6.28,10.11,9.32Q684.51,630.13,684.16,627.39Z"/><path class="cls-1" d="M645.38,720.93c2,.12,4.1.19,6.15.19A39.36,39.36,0,0,0,645.38,720.93Z"/><path class="cls-1" d="M-118.9,66.3V1126.8H2052.9V66.3ZM953.22,796.74c-22.7-4.63-44.48-12.73-65.44-22.51-37.83-17.65-73.51-41.16-110.27-62a174.19,174.19,0,0,1-19,5.7,130.06,130.06,0,0,1-29.17,4,4.51,4.51,0,0,1-1,.8q-2.14,1.24-4.31,2.34c.53,2.36,1.19,4.69,1.92,7a86.43,86.43,0,0,0,24.38,1.76c4.9-.36,6.88,7.14,2.52,9.32-8.6,4.29-17.25,8.51-27,8.85a5.11,5.11,0,0,1-4.82-3.67l-1.53-4.45c-.08.4-.17.79-.25,1.19a100,100,0,0,0-.66,10.1c-.06,6.44-9.95,6.43-10,0,0-2-.08-4.11-.18-6.17-2-1.83-4.06-3.56-6.18-5.23,0,.16-.1.32-.16.47a5.07,5.07,0,0,1-9.14,1.2c-1.57-2.34-3.21-4.63-4.86-6.91-1.92,1.57-4.77,2-6.61-.25a52.9,52.9,0,0,0-7.7-7.64c-1.22-.3-2.44-.63-3.65-1a114.49,114.49,0,0,1-47.72-2.34,5.06,5.06,0,0,1-1.19-9.14A52,52,0,0,1,645.6,711c-18.32-1-36.19-6.49-46.68-22.73a5,5,0,0,1,3-7.35c2.12-.52,4.26-1,6.4-1.48-6.29-1.49-12.52-3.2-18.65-5.22s-3.47-11.66,2.66-9.64a253.46,253.46,0,0,0,41.08,9.51c-12.81-13.22-26.23-35.94-17.65-54.48,7.18-15.52,24.44-16.07,40.75-12.41,9-1,18.32,1.16,26.91,3.71,1.15.34,2.3.71,3.44,1.08a4.06,4.06,0,0,1,5.72.77c.46.56.89,1.13,1.34,1.69,5.18,1.93,10.26,4.13,15.22,6.56,12.62-.32,23.83,7.82,32.46,16.26a5.27,5.27,0,0,1,1,5.72c1.84,1.7,3.6,3.48,5.26,5.33a4.46,4.46,0,0,1,3.21,3.88,46.5,46.5,0,0,1,8.24,16.28c4.41.73,8.82,1.47,13.18,2.43,13.44,3,25.41,8.91,34.48,19.47a5.09,5.09,0,0,1-1,7.85,129.83,129.83,0,0,1-17.17,9.43c53.74,31.26,105.74,67,167.12,79.47C962.19,788.38,959.51,798,953.22,796.74Z"/><path class="cls-1" d="M753.12,699c-3,3.87-5.71,7.94-8.83,11.69,5.17-.85,10.26-2,15.14-3.31q3.11-.82,6.17-1.77Q759.39,702.23,753.12,699Z"/><path class="cls-1" d="M770.26,680.7c-3.26-.82-6.57-1.51-9.92-2.14q-.08,1.07-.21,2.13Z"/><path class="cls-1" d="M773.68,681.64c3.26,2.48,2.26,9.06-3,9.06H759.21c0,.16,0,.31-.08.46q9.42,5,18.71,10.21a130.81,130.81,0,0,0,17.58-8.44C789,687.29,781.6,684,773.68,681.64Z"/><path class="cls-1" d="M612.08,688.78c7.26,7.23,17.14,10.41,27.39,11.65a.93.93,0,0,0,0-.13c-7.49-4.5-15-8.78-22.61-12.5C615.29,688.11,613.68,688.44,612.08,688.78Z"/><path class="cls-1" d="M640,664.36h.13c-2.44-2.84-.21-7.48,3.27-8.08a4.64,4.64,0,0,1,4.77-4.17q4.2,0,8.45-.14c-1.57-2.14-1.54-5.48.63-7.07-3.4-2.29-1.56-9.13,3.18-9.13H673.6c-6.73-6.13-13.24-12.52-19.67-18.94-7.18-1.55-14.6-2.1-21.15,0a13.8,13.8,0,0,0-9.41,11.87c-1.31,12.53,5.66,25.7,14.84,35.91A5.79,5.79,0,0,1,640,664.36Z"/><path class="cls-1" d="M612.08,688.78c7.26,7.23,17.14,10.41,27.39,11.65a.93.93,0,0,0,0-.13c-7.49-4.5-15-8.78-22.61-12.5C615.29,688.11,613.68,688.44,612.08,688.78Z"/><path class="cls-1" d="M710.13,694.79a5.51,5.51,0,0,1-1.08,2.34c1.49,0,3-.08,4.48-.09a4.85,4.85,0,0,1,1.16.16l.5-.4c-.6-.67-1.19-1.34-1.75-2Z"/><path class="cls-1" d="M732.51,707.92l-.58-.1a24.35,24.35,0,0,1-7.7-3.23c-.79.78-1.6,1.55-2.43,2.3a41.32,41.32,0,0,1,5.3,5.14c2.07.05,4.15,0,6.23-.11,0-.13-.08-.25-.11-.38C733,710.34,732.75,709.13,732.51,707.92Z"/><path class="cls-1" d="M684.16,627.39c-3.18-1.44-6.28-2.75-9.21-3.9,3.31,3.16,6.67,6.28,10.11,9.32Q684.51,630.13,684.16,627.39Z"/><path class="cls-1" d="M640,664.36h.13c-2.44-2.84-.21-7.48,3.27-8.08a4.64,4.64,0,0,1,4.77-4.17q4.2,0,8.45-.14c-1.57-2.14-1.54-5.48.63-7.07-3.4-2.29-1.56-9.13,3.18-9.13H673.6c-6.73-6.13-13.24-12.52-19.67-18.94-7.18-1.55-14.6-2.1-21.15,0a13.8,13.8,0,0,0-9.41,11.87c-1.31,12.53,5.66,25.7,14.84,35.91A5.79,5.79,0,0,1,640,664.36Z"/><path class="cls-1" d="M770.26,680.7c-3.26-.82-6.57-1.51-9.92-2.14q-.08,1.07-.21,2.13Z"/><path class="cls-1" d="M773.68,681.64c3.26,2.48,2.26,9.06-3,9.06H759.21c0,.16,0,.31-.08.46q9.42,5,18.71,10.21a130.81,130.81,0,0,0,17.58-8.44C789,687.29,781.6,684,773.68,681.64Z"/><path class="cls-1" d="M753.12,699c-3,3.87-5.71,7.94-8.83,11.69,5.17-.85,10.26-2,15.14-3.31q3.11-.82,6.17-1.77Q759.39,702.23,753.12,699Z"/><path class="cls-1" d="M-189.3,35.9V1189.6H1521.9V35.9ZM953.22,796.74c-22.7-4.63-44.48-12.73-65.44-22.51-37.83-17.65-73.51-41.16-110.27-62a174.19,174.19,0,0,1-19,5.7,130.06,130.06,0,0,1-29.17,4,4.51,4.51,0,0,1-1,.8q-2.14,1.24-4.31,2.34c.53,2.36,1.19,4.69,1.92,7a86.43,86.43,0,0,0,24.38,1.76c4.9-.36,6.88,7.14,2.52,9.32-8.6,4.29-17.25,8.51-27,8.85a5.11,5.11,0,0,1-4.82-3.67l-1.53-4.45c-.08.4-.17.79-.25,1.19a100,100,0,0,0-.66,10.1c-.06,6.44-9.95,6.43-10,0,0-2-.08-4.11-.18-6.17-2-1.83-4.06-3.56-6.18-5.23,0,.16-.1.32-.16.47a5.07,5.07,0,0,1-9.14,1.2c-1.57-2.34-3.21-4.63-4.86-6.91-1.92,1.57-4.77,2-6.61-.25a52.9,52.9,0,0,0-7.7-7.64c-1.22-.3-2.44-.63-3.65-1a114.49,114.49,0,0,1-47.72-2.34,5.06,5.06,0,0,1-1.19-9.14A52,52,0,0,1,645.6,711c-18.32-1-36.19-6.49-46.68-22.73a5,5,0,0,1,3-7.35c2.12-.52,4.26-1,6.4-1.48-6.29-1.49-12.52-3.2-18.65-5.22s-3.47-11.66,2.66-9.64a253.46,253.46,0,0,0,41.08,9.51c-12.81-13.22-26.23-35.94-17.65-54.48,7.18-15.52,24.44-16.07,40.75-12.41,9-1,18.32,1.16,26.91,3.71,1.15.34,2.3.71,3.44,1.08a4.06,4.06,0,0,1,5.72.77c.46.56.89,1.13,1.34,1.69,5.18,1.93,10.26,4.13,15.22,6.56,12.62-.32,23.83,7.82,32.46,16.26a5.27,5.27,0,0,1,1,5.72c1.84,1.7,3.6,3.48,5.26,5.33a4.46,4.46,0,0,1,3.21,3.88,46.5,46.5,0,0,1,8.24,16.28c4.41.73,8.82,1.47,13.18,2.43,13.44,3,25.41,8.91,34.48,19.47a5.09,5.09,0,0,1-1,7.85,129.83,129.83,0,0,1-17.17,9.43c53.74,31.26,105.74,67,167.12,79.47C962.19,788.38,959.51,798,953.22,796.74Z"/><path class="cls-1" d="M645.38,720.93c2,.12,4.1.19,6.15.19A39.36,39.36,0,0,0,645.38,720.93Z"/><path class="cls-1" d="M684.16,627.39c-3.18-1.44-6.28-2.75-9.21-3.9,3.31,3.16,6.67,6.28,10.11,9.32Q684.51,630.13,684.16,627.39Z"/><path class="cls-1" d="M612.08,688.78c7.26,7.23,17.14,10.41,27.39,11.65a.93.93,0,0,0,0-.13c-7.49-4.5-15-8.78-22.61-12.5C615.29,688.11,613.68,688.44,612.08,688.78Z"/><path class="cls-1" d="M710.13,694.79a5.51,5.51,0,0,1-1.08,2.34c1.49,0,3-.08,4.48-.09a4.85,4.85,0,0,1,1.16.16l.5-.4c-.6-.67-1.19-1.34-1.75-2Z"/><path class="cls-1" d="M732.51,707.92l-.58-.1a24.35,24.35,0,0,1-7.7-3.23c-.79.78-1.6,1.55-2.43,2.3a41.32,41.32,0,0,1,5.3,5.14c2.07.05,4.15,0,6.23-.11,0-.13-.08-.25-.11-.38C733,710.34,732.75,709.13,732.51,707.92Z"/><path class="cls-1" d="M-118.9,66.3V1126.8H2052.9V66.3ZM953.22,796.74c-22.7-4.63-44.48-12.73-65.44-22.51-37.83-17.65-73.51-41.16-110.27-62a174.19,174.19,0,0,1-19,5.7,130.06,130.06,0,0,1-29.17,4,4.51,4.51,0,0,1-1,.8q-2.14,1.24-4.31,2.34c.53,2.36,1.19,4.69,1.92,7a86.43,86.43,0,0,0,24.38,1.76c4.9-.36,6.88,7.14,2.52,9.32-8.6,4.29-17.25,8.51-27,8.85a5.11,5.11,0,0,1-4.82-3.67l-1.53-4.45c-.08.4-.17.79-.25,1.19a100,100,0,0,0-.66,10.1c-.06,6.44-9.95,6.43-10,0,0-2-.08-4.11-.18-6.17-2-1.83-4.06-3.56-6.18-5.23,0,.16-.1.32-.16.47a5.07,5.07,0,0,1-9.14,1.2c-1.57-2.34-3.21-4.63-4.86-6.91-1.92,1.57-4.77,2-6.61-.25a52.9,52.9,0,0,0-7.7-7.64c-1.22-.3-2.44-.63-3.65-1a114.49,114.49,0,0,1-47.72-2.34,5.06,5.06,0,0,1-1.19-9.14A52,52,0,0,1,645.6,711c-18.32-1-36.19-6.49-46.68-22.73a5,5,0,0,1,3-7.35c2.12-.52,4.26-1,6.4-1.48-6.29-1.49-12.52-3.2-18.65-5.22s-3.47-11.66,2.66-9.64a253.46,253.46,0,0,0,41.08,9.51c-12.81-13.22-26.23-35.94-17.65-54.48,7.18-15.52,24.44-16.07,40.75-12.41,9-1,18.32,1.16,26.91,3.71,1.15.34,2.3.71,3.44,1.08a4.06,4.06,0,0,1,5.72.77c.46.56.89,1.13,1.34,1.69,5.18,1.93,10.26,4.13,15.22,6.56,12.62-.32,23.83,7.82,32.46,16.26a5.27,5.27,0,0,1,1,5.72c1.84,1.7,3.6,3.48,5.26,5.33a4.46,4.46,0,0,1,3.21,3.88,46.5,46.5,0,0,1,8.24,16.28c4.41.73,8.82,1.47,13.18,2.43,13.44,3,25.41,8.91,34.48,19.47a5.09,5.09,0,0,1-1,7.85,129.83,129.83,0,0,1-17.17,9.43c53.74,31.26,105.74,67,167.12,79.47C962.19,788.38,959.51,798,953.22,796.74Z"/><path class="cls-1" d="M640,664.36h.13c-2.44-2.84-.21-7.48,3.27-8.08a4.64,4.64,0,0,1,4.77-4.17q4.2,0,8.45-.14c-1.57-2.14-1.54-5.48.63-7.07-3.4-2.29-1.56-9.13,3.18-9.13H673.6c-6.73-6.13-13.24-12.52-19.67-18.94-7.18-1.55-14.6-2.1-21.15,0a13.8,13.8,0,0,0-9.41,11.87c-1.31,12.53,5.66,25.7,14.84,35.91A5.79,5.79,0,0,1,640,664.36Z"/><path class="cls-1" d="M753.12,699c-3,3.87-5.71,7.94-8.83,11.69,5.17-.85,10.26-2,15.14-3.31q3.11-.82,6.17-1.77Q759.39,702.23,753.12,699Z"/><path class="cls-1" d="M770.26,680.7c-3.26-.82-6.57-1.51-9.92-2.14q-.08,1.07-.21,2.13Z"/><path class="cls-1" d="M773.68,681.64c3.26,2.48,2.26,9.06-3,9.06H759.21c0,.16,0,.31-.08.46q9.42,5,18.71,10.21a130.81,130.81,0,0,0,17.58-8.44C789,687.29,781.6,684,773.68,681.64Z"/><path class="cls-1" d="M645.38,720.93c2,.12,4.1.19,6.15.19A39.36,39.36,0,0,0,645.38,720.93Z"/><path class="cls-1" d="M612.08,688.78c7.26,7.23,17.14,10.41,27.39,11.65a.93.93,0,0,0,0-.13c-7.49-4.5-15-8.78-22.61-12.5C615.29,688.11,613.68,688.44,612.08,688.78Z"/><path class="cls-1" d="M732.51,707.92l-.58-.1a24.35,24.35,0,0,1-7.7-3.23c-.79.78-1.6,1.55-2.43,2.3a41.32,41.32,0,0,1,5.3,5.14c2.07.05,4.15,0,6.23-.11,0-.13-.08-.25-.11-.38C733,710.34,732.75,709.13,732.51,707.92Z"/><path class="cls-1" d="M710.13,694.79a5.51,5.51,0,0,1-1.08,2.34c1.49,0,3-.08,4.48-.09a4.85,4.85,0,0,1,1.16.16l.5-.4c-.6-.67-1.19-1.34-1.75-2Z"/><path class="cls-1" d="M684.16,627.39c-3.18-1.44-6.28-2.75-9.21-3.9,3.31,3.16,6.67,6.28,10.11,9.32Q684.51,630.13,684.16,627.39Z"/><path class="cls-1" d="M770.26,680.7c-3.26-.82-6.57-1.51-9.92-2.14q-.08,1.07-.21,2.13Z"/><path class="cls-1" d="M773.68,681.64c3.26,2.48,2.26,9.06-3,9.06H759.21c0,.16,0,.31-.08.46q9.42,5,18.71,10.21a130.81,130.81,0,0,0,17.58-8.44C789,687.29,781.6,684,773.68,681.64Z"/><path class="cls-1" d="M753.12,699c-3,3.87-5.71,7.94-8.83,11.69,5.17-.85,10.26-2,15.14-3.31q3.11-.82,6.17-1.77Q759.39,702.23,753.12,699Z"/><path class="cls-1" d="M-200.2,72V1537.1H2133.2V72ZM953.22,796.74c-22.7-4.63-44.48-12.73-65.44-22.51-37.83-17.65-73.51-41.16-110.27-62a174.19,174.19,0,0,1-19,5.7,130.06,130.06,0,0,1-29.17,4,4.51,4.51,0,0,1-1,.8q-2.14,1.24-4.31,2.34c.53,2.36,1.19,4.69,1.92,7a86.43,86.43,0,0,0,24.38,1.76c4.9-.36,6.88,7.14,2.52,9.32-8.6,4.29-17.25,8.51-27,8.85a5.11,5.11,0,0,1-4.82-3.67l-1.53-4.45c-.08.4-.17.79-.25,1.19a100,100,0,0,0-.66,10.1c-.06,6.44-9.95,6.43-10,0,0-2-.08-4.11-.18-6.17-2-1.83-4.06-3.56-6.18-5.23,0,.16-.1.32-.16.47a5.07,5.07,0,0,1-9.14,1.2c-1.57-2.34-3.21-4.63-4.86-6.91-1.92,1.57-4.77,2-6.61-.25a52.9,52.9,0,0,0-7.7-7.64c-1.22-.3-2.44-.63-3.65-1a114.49,114.49,0,0,1-47.72-2.34,5.06,5.06,0,0,1-1.19-9.14A52,52,0,0,1,645.6,711c-18.32-1-36.19-6.49-46.68-22.73a5,5,0,0,1,3-7.35c2.12-.52,4.26-1,6.4-1.48-6.29-1.49-12.52-3.2-18.65-5.22s-3.47-11.66,2.66-9.64a253.46,253.46,0,0,0,41.08,9.51c-12.81-13.22-26.23-35.94-17.65-54.48,7.18-15.52,24.44-16.07,40.75-12.41,9-1,18.32,1.16,26.91,3.71,1.15.34,2.3.71,3.44,1.08a4.06,4.06,0,0,1,5.72.77c.46.56.89,1.13,1.34,1.69,5.18,1.93,10.26,4.13,15.22,6.56,12.62-.32,23.83,7.82,32.46,16.26a5.27,5.27,0,0,1,1,5.72c1.84,1.7,3.6,3.48,5.26,5.33a4.46,4.46,0,0,1,3.21,3.88,46.5,46.5,0,0,1,8.24,16.28c4.41.73,8.82,1.47,13.18,2.43,13.44,3,25.41,8.91,34.48,19.47a5.09,5.09,0,0,1-1,7.85,129.83,129.83,0,0,1-17.17,9.43c53.74,31.26,105.74,67,167.12,79.47C962.19,788.38,959.51,798,953.22,796.74Z"/><path class="cls-1" d="M645.38,720.93c2,.12,4.1.19,6.15.19A39.36,39.36,0,0,0,645.38,720.93Z"/><path class="cls-1" d="M640,664.36h.13c-2.44-2.84-.21-7.48,3.27-8.08a4.64,4.64,0,0,1,4.77-4.17q4.2,0,8.45-.14c-1.57-2.14-1.54-5.48.63-7.07-3.4-2.29-1.56-9.13,3.18-9.13H673.6c-6.73-6.13-13.24-12.52-19.67-18.94-7.18-1.55-14.6-2.1-21.15,0a13.8,13.8,0,0,0-9.41,11.87c-1.31,12.53,5.66,25.7,14.84,35.91A5.79,5.79,0,0,1,640,664.36Z"/><path class="cls-1" d="M684.16,627.39c-3.18-1.44-6.28-2.75-9.21-3.9,3.31,3.16,6.67,6.28,10.11,9.32Q684.51,630.13,684.16,627.39Z"/><path class="cls-1" d="M732.51,707.92l-.58-.1a24.35,24.35,0,0,1-7.7-3.23c-.79.78-1.6,1.55-2.43,2.3a41.32,41.32,0,0,1,5.3,5.14c2.07.05,4.15,0,6.23-.11,0-.13-.08-.25-.11-.38C733,710.34,732.75,709.13,732.51,707.92Z"/><path class="cls-1" d="M612.08,688.78c7.26,7.23,17.14,10.41,27.39,11.65a.93.93,0,0,0,0-.13c-7.49-4.5-15-8.78-22.61-12.5C615.29,688.11,613.68,688.44,612.08,688.78Z"/><path class="cls-1" d="M710.13,694.79a5.51,5.51,0,0,1-1.08,2.34c1.49,0,3-.08,4.48-.09a4.85,4.85,0,0,1,1.16.16l.5-.4c-.6-.67-1.19-1.34-1.75-2Z"/><path class="cls-1" d="M-376.9,109.5V1583.9H2507.7V109.5ZM953.22,796.74c-22.7-4.63-44.48-12.73-65.44-22.51-37.83-17.65-73.51-41.16-110.27-62a174.19,174.19,0,0,1-19,5.7,130.06,130.06,0,0,1-29.17,4,4.51,4.51,0,0,1-1,.8q-2.14,1.24-4.31,2.34c.53,2.36,1.19,4.69,1.92,7a86.43,86.43,0,0,0,24.38,1.76c4.9-.36,6.88,7.14,2.52,9.32-8.6,4.29-17.25,8.51-27,8.85a5.11,5.11,0,0,1-4.82-3.67l-1.53-4.45c-.08.4-.17.79-.25,1.19a100,100,0,0,0-.66,10.1c-.06,6.44-9.95,6.43-10,0,0-2-.08-4.11-.18-6.17-2-1.83-4.06-3.56-6.18-5.23,0,.16-.1.32-.16.47a5.07,5.07,0,0,1-9.14,1.2c-1.57-2.34-3.21-4.63-4.86-6.91-1.92,1.57-4.77,2-6.61-.25a52.9,52.9,0,0,0-7.7-7.64c-1.22-.3-2.44-.63-3.65-1a114.49,114.49,0,0,1-47.72-2.34,5.06,5.06,0,0,1-1.19-9.14A52,52,0,0,1,645.6,711c-18.32-1-36.19-6.49-46.68-22.73a5,5,0,0,1,3-7.35c2.12-.52,4.26-1,6.4-1.48-6.29-1.49-12.52-3.2-18.65-5.22s-3.47-11.66,2.66-9.64a253.46,253.46,0,0,0,41.08,9.51c-12.81-13.22-26.23-35.94-17.65-54.48,7.18-15.52,24.44-16.07,40.75-12.41,9-1,18.32,1.16,26.91,3.71,1.15.34,2.3.71,3.44,1.08a4.06,4.06,0,0,1,5.72.77c.46.56.89,1.13,1.34,1.69,5.18,1.93,10.26,4.13,15.22,6.56,12.62-.32,23.83,7.82,32.46,16.26a5.27,5.27,0,0,1,1,5.72c1.84,1.7,3.6,3.48,5.26,5.33a4.46,4.46,0,0,1,3.21,3.88,46.5,46.5,0,0,1,8.24,16.28c4.41.73,8.82,1.47,13.18,2.43,13.44,3,25.41,8.91,34.48,19.47a5.09,5.09,0,0,1-1,7.85,129.83,129.83,0,0,1-17.17,9.43c53.74,31.26,105.74,67,167.12,79.47C962.19,788.38,959.51,798,953.22,796.74Z"/><path class="cls-1" d="M640,664.36h.13c-2.44-2.84-.21-7.48,3.27-8.08a4.64,4.64,0,0,1,4.77-4.17q4.2,0,8.45-.14c-1.57-2.14-1.54-5.48.63-7.07-3.4-2.29-1.56-9.13,3.18-9.13H673.6c-6.73-6.13-13.24-12.52-19.67-18.94-7.18-1.55-14.6-2.1-21.15,0a13.8,13.8,0,0,0-9.41,11.87c-1.31,12.53,5.66,25.7,14.84,35.91A5.79,5.79,0,0,1,640,664.36Z"/><path class="cls-1" d="M770.26,680.7c-3.26-.82-6.57-1.51-9.92-2.14q-.08,1.07-.21,2.13Z"/><path class="cls-1" d="M773.68,681.64c3.26,2.48,2.26,9.06-3,9.06H759.21c0,.16,0,.31-.08.46q9.42,5,18.71,10.21a130.81,130.81,0,0,0,17.58-8.44C789,687.29,781.6,684,773.68,681.64Z"/><path class="cls-1" d="M753.12,699c-3,3.87-5.71,7.94-8.83,11.69,5.17-.85,10.26-2,15.14-3.31q3.11-.82,6.17-1.77Q759.39,702.23,753.12,699Z"/><path class="cls-1" d="M645.38,720.93c2,.12,4.1.19,6.15.19A39.36,39.36,0,0,0,645.38,720.93Z"/><path class="cls-1" d="M684.16,627.39c-3.18-1.44-6.28-2.75-9.21-3.9,3.31,3.16,6.67,6.28,10.11,9.32Q684.51,630.13,684.16,627.39Z"/><path class="cls-1" d="M710.13,694.79a5.51,5.51,0,0,1-1.08,2.34c1.49,0,3-.08,4.48-.09a4.85,4.85,0,0,1,1.16.16l.5-.4c-.6-.67-1.19-1.34-1.75-2Z"/><path class="cls-1" d="M732.51,707.92l-.58-.1a24.35,24.35,0,0,1-7.7-3.23c-.79.78-1.6,1.55-2.43,2.3a41.32,41.32,0,0,1,5.3,5.14c2.07.05,4.15,0,6.23-.11,0-.13-.08-.25-.11-.38C733,710.34,732.75,709.13,732.51,707.92Z"/><path class="cls-1" d="M640,664.36h.13c-2.44-2.84-.21-7.48,3.27-8.08a4.64,4.64,0,0,1,4.77-4.17q4.2,0,8.45-.14c-1.57-2.14-1.54-5.48.63-7.07-3.4-2.29-1.56-9.13,3.18-9.13H673.6c-6.73-6.13-13.24-12.52-19.67-18.94-7.18-1.55-14.6-2.1-21.15,0a13.8,13.8,0,0,0-9.41,11.87c-1.31,12.53,5.66,25.7,14.84,35.91A5.79,5.79,0,0,1,640,664.36Z"/><path class="cls-1" d="M612.08,688.78c7.26,7.23,17.14,10.41,27.39,11.65a.93.93,0,0,0,0-.13c-7.49-4.5-15-8.78-22.61-12.5C615.29,688.11,613.68,688.44,612.08,688.78Z"/><path class="cls-1" d="M-377,112V1586.6H2507.6V112ZM953.22,796.74c-22.7-4.63-44.48-12.73-65.44-22.51-37.83-17.65-73.51-41.16-110.27-62a174.19,174.19,0,0,1-19,5.7,130.06,130.06,0,0,1-29.17,4,4.51,4.51,0,0,1-1,.8q-2.14,1.24-4.31,2.34c.53,2.36,1.19,4.69,1.92,7a86.43,86.43,0,0,0,24.38,1.76c4.9-.36,6.88,7.14,2.52,9.32-8.6,4.29-17.25,8.51-27,8.85a5.11,5.11,0,0,1-4.82-3.67l-1.53-4.45c-.08.4-.17.79-.25,1.19a100,100,0,0,0-.66,10.1c-.06,6.44-9.95,6.43-10,0,0-2-.08-4.11-.18-6.17-2-1.83-4.06-3.56-6.18-5.23,0,.16-.1.32-.16.47a5.07,5.07,0,0,1-9.14,1.2c-1.57-2.34-3.21-4.63-4.86-6.91-1.92,1.57-4.77,2-6.61-.25a52.9,52.9,0,0,0-7.7-7.64c-1.22-.3-2.44-.63-3.65-1a114.49,114.49,0,0,1-47.72-2.34,5.06,5.06,0,0,1-1.19-9.14A52,52,0,0,1,645.6,711c-18.32-1-36.19-6.49-46.68-22.73a5,5,0,0,1,3-7.35c2.12-.52,4.26-1,6.4-1.48-6.29-1.49-12.52-3.2-18.65-5.22s-3.47-11.66,2.66-9.64a253.46,253.46,0,0,0,41.08,9.51c-12.81-13.22-26.23-35.94-17.65-54.48,7.18-15.52,24.44-16.07,40.75-12.41,9-1,18.32,1.16,26.91,3.71,1.15.34,2.3.71,3.44,1.08a4.06,4.06,0,0,1,5.72.77c.46.56.89,1.13,1.34,1.69,5.18,1.93,10.26,4.13,15.22,6.56,12.62-.32,23.83,7.82,32.46,16.26a5.27,5.27,0,0,1,1,5.72c1.84,1.7,3.6,3.48,5.26,5.33a4.46,4.46,0,0,1,3.21,3.88,46.5,46.5,0,0,1,8.24,16.28c4.41.73,8.82,1.47,13.18,2.43,13.44,3,25.41,8.91,34.48,19.47a5.09,5.09,0,0,1-1,7.85,129.83,129.83,0,0,1-17.17,9.43c53.74,31.26,105.74,67,167.12,79.47C962.19,788.38,959.51,798,953.22,796.74Z"/><path class="cls-1" d="M773.68,681.64c3.26,2.48,2.26,9.06-3,9.06H759.21c0,.16,0,.31-.08.46q9.42,5,18.71,10.21a130.81,130.81,0,0,0,17.58-8.44C789,687.29,781.6,684,773.68,681.64Z"/><path class="cls-1" d="M770.26,680.7c-3.26-.82-6.57-1.51-9.92-2.14q-.08,1.07-.21,2.13Z"/><path class="cls-1" d="M753.12,699c-3,3.87-5.71,7.94-8.83,11.69,5.17-.85,10.26-2,15.14-3.31q3.11-.82,6.17-1.77Q759.39,702.23,753.12,699Z"/><path class="cls-1" d="M645.38,720.93c2,.12,4.1.19,6.15.19A39.36,39.36,0,0,0,645.38,720.93Z"/><g class="cls-7"><g class="cls-8"><use width="2987.4" height="1474.56" transform="translate(-339.47 569.7) scale(0.86 0.76)" xlink:href="#Homepagebackground"/></g></g></g></svg>