<svg xmlns="http://www.w3.org/2000/svg" viewBox="0 0 979.9 673.7"><defs><style>.cls-1{fill:#fff;}.cls-2{fill:#1b5659;}</style></defs><g id="Layer_2" data-name="Layer 2"><g id="Layer_1-2" data-name="Layer 1"><path class="cls-1" d="M852,673.7H127.9C57.2,673.7,0,638,0,593.91V79.79C0,35.68,57.3,0,127.9,0H852c70.7,0,127.9,35.75,127.9,79.79V593.91C980,638,922.7,673.7,852,673.7Z"/><rect class="cls-2" x="130.38" y="506.73" width="719.13" height="34.14" rx="5.11"/><path class="cls-2" d="M797.23,132.83H179.67a6.74,6.74,0,0,0-6.74,6.74V505a6.74,6.74,0,0,0,6.74,6.74H797.23A6.74,6.74,0,0,0,804,505V139.57A6.74,6.74,0,0,0,797.23,132.83ZM782.57,486.7a6.74,6.74,0,0,1-6.74,6.74H201.06a6.74,6.74,0,0,1-6.74-6.74V157.83a6.74,6.74,0,0,1,6.74-6.74H775.83a6.74,6.74,0,0,1,6.74,6.74Z"/></g></g></svg>