<svg xmlns="http://www.w3.org/2000/svg" viewBox="0 0 980 1080"><defs><style>.cls-1{fill:#fff;}.cls-2{fill:#f57c26;}.cls-3{fill:#e5572b;}.cls-4{fill:#1b5659;}.cls-4,.cls-5,.cls-6{stroke:#1b5659;stroke-miterlimit:10;}.cls-4,.cls-6{stroke-width:11px;}.cls-5,.cls-6{fill:#71c6d0;}.cls-5{stroke-width:10px;}</style></defs><g id="Layer_2" data-name="Layer 2"><g id="Layer_1-2" data-name="Layer 1"><rect class="cls-1" width="980" height="1080" rx="127.94"/><polygon class="cls-2" points="456.4 394 668 375.3 621.9 144 410.3 162.6 456.4 394"/><polygon class="cls-2" points="336.7 389.4 453.9 395.3 461.8 163 344.5 157.1 336.7 389.4"/><polygon class="cls-2" points="333.1 186 492.7 287.5 627.2 159.6 467.7 58.1 333.1 186"/><polygon class="cls-3" points="464.8 206.6 609.7 173.5 602.4 156.6 457.5 189.7 464.8 206.6"/><polygon class="cls-3" points="672.7 377.5 648.9 141.9 617.9 142.8 641.7 378.4 672.7 377.5"/><polygon class="cls-3" points="452.5 72.2 633 162.1 649.1 142.1 468.6 52.2 452.5 72.2"/><polygon class="cls-3" points="361.1 175.7 422.3 206.1 434.9 190.5 373.7 160 361.1 175.7"/><polygon class="cls-3" points="490 71.1 334.5 176.4 313.5 158.2 468.9 52.8 490 71.1"/><polygon class="cls-3" points="367.6 389.6 344.1 157.1 313.2 158 336.6 390.5 367.6 389.6"/><polygon class="cls-3" points="469.7 393.6 452.4 221.5 428.3 222.2 445.6 394.3 469.7 393.6"/><rect class="cls-2" x="549.33" y="632.48" width="195.69" height="138.79" transform="translate(-284.65 494.1) rotate(-34.75)"/><rect class="cls-2" x="604.8" y="736.37" width="195.7" height="76.1" transform="translate(-341.81 723.96) rotate(-45.02)"/><rect class="cls-2" x="660.47" y="609.17" width="141.3" height="131.6" transform="translate(-42.41 1300.88) rotate(-81.69)"/><rect class="cls-3" x="695.43" y="604.42" width="14.8" height="99.1" transform="translate(-210.23 357.39) rotate(-24.94)"/><rect class="cls-3" x="507.94" y="635.16" width="198.21" height="20.1" transform="translate(-270.91 526.89) rotate(-39.07)"/><rect class="cls-3" x="730.82" y="534.12" width="20.1" height="136.9" transform="translate(-35.52 1158.64) rotate(-74.73)"/><rect class="cls-3" x="752.1" y="697.93" width="15.7" height="46.5" transform="translate(-135.88 1264.43) rotate(-74.73)"/><rect class="cls-3" x="790.08" y="611.06" width="20.1" height="136.9" transform="translate(-11.05 13.23) rotate(-0.94)"/><rect class="cls-3" x="631.48" y="791.84" width="195.61" height="20.1" transform="translate(-342.32 638.98) rotate(-39.07)"/><rect class="cls-3" x="589.56" y="760.74" width="144.81" height="15.7" transform="translate(-336.39 589.1) rotate(-39.07)"/><polygon class="cls-2" points="617.6 624.3 506 520.4 653.2 266.7 764.8 370.7 617.6 624.3"/><polygon class="cls-2" points="688.7 665.3 618.3 626.9 735.1 351.1 805.5 389.6 688.7 665.3"/><polygon class="cls-2" points="796.9 428 652.4 485.3 641.9 283.1 786.5 225.7 796.9 428"/><polygon class="cls-3" points="710.6 401.1 644.8 306.1 657.8 289.1 723.6 384.1 710.6 401.1"/><polygon class="cls-3" points="502.1 521.1 638.7 253.9 656 267 519.4 534.2 502.1 521.1"/><polygon class="cls-3" points="787.8 248.2 637.3 283.7 638.5 254 789 218.5 787.8 248.2"/><polygon class="cls-3" points="786.3 405 735.2 417.1 736.2 393.8 787.2 381.8 786.3 405"/><polygon class="cls-3" points="766.9 232.3 801.1 416.2 822.7 402.9 788.5 219 766.9 232.3"/><polygon class="cls-3" points="670.9 653.6 805.7 389.8 823 402.9 688.2 666.6 670.9 653.6"/><polygon class="cls-3" points="610.2 618.7 710 423.4 723.4 433.6 623.6 628.9 610.2 618.7"/><polygon class="cls-2" points="380.7 788.1 483.8 660.9 296.6 520.5 193.5 647.7 380.7 788.1"/><polygon class="cls-2" points="311.8 849.2 380.3 790.4 222 620.2 153.5 679.1 311.8 849.2"/><polygon class="cls-2" points="167.5 705.9 326.1 692.6 310.5 528.8 151.9 542.1 167.5 705.9"/><polygon class="cls-3" points="254.2 649.7 310.6 548.1 294.7 540 238.4 641.6 254.2 649.7"/><polygon class="cls-3" points="487.9 659.9 310 504.5 293.6 521.8 471.5 677.2 487.9 659.9"/><polygon class="cls-3" points="153.4 560.4 315.4 527.4 310.2 504.5 148.2 537.5 153.4 560.4"/><polygon class="cls-3" points="175.6 683.4 230.6 672.3 226.5 654.3 171.6 665.5 175.6 683.4"/><polygon class="cls-3" points="173.1 539.4 161.6 698.3 137.2 696.5 148.8 537.7 173.1 539.4"/><polygon class="cls-3" points="328.9 832.7 153.3 679.3 136.9 696.6 312.5 850 328.9 832.7"/><polygon class="cls-3" points="387.8 780.6 257.8 667.1 245.1 680.6 375 794.1 387.8 780.6"/><polygon class="cls-2" points="313.3 526 451.3 438 318.3 245.5 180.2 333.4 313.3 526"/><polygon class="cls-2" points="228.5 562.1 312.2 528 215.9 316.5 132.3 350.6 228.5 562.1"/><polygon class="cls-2" points="137.1 380.4 291.7 418.1 328.8 257.8 174.2 220.2 137.1 380.4"/><polygon class="cls-3" points="237.1 354.6 322.8 276.1 310.4 263.4 224.7 341.9 237.1 354.6"/><polygon class="cls-3" points="455.5 438.4 336.1 234.6 315.1 245.8 434.5 449.6 455.5 438.4"/><polygon class="cls-3" points="169.8 237.9 333.9 258 336.3 234.6 172.2 214.6 169.8 237.9"/><polygon class="cls-3" points="151.9 361.7 207.6 368.5 209.4 350.2 153.7 343.4 151.9 361.7"/><polygon class="cls-3" points="195.2 224.3 133.9 371.3 111.3 362 172.7 215 195.2 224.3"/><polygon class="cls-3" points="249.9 551.9 132 350.7 111 362 228.9 563.1 249.9 551.9"/><polygon class="cls-3" points="322.3 521.1 235 372.2 218.7 381 305.9 529.9 322.3 521.1"/><path class="cls-4" d="M642,939.07H338a49,49,0,0,1-49-49v-575a49,49,0,0,1,49-49H642a49,49,0,0,1,49,49v575A49,49,0,0,1,642,939.07Z"/><circle class="cls-5" cx="489.74" cy="879.8" r="35.2"/><path class="cls-6" d="M642,823.07H336a26,26,0,0,1-26-26v-483a26,26,0,0,1,26-26H642a26,26,0,0,1,26,26v483A26,26,0,0,1,642,823.07Z"/></g></g></svg>