<svg xmlns="http://www.w3.org/2000/svg" viewBox="0 0 979.9 673.7"><defs><style>.cls-1{fill:#fff;}.cls-2{fill:#1b5659;stroke-width:11px;}.cls-2,.cls-3{stroke:#1b5659;stroke-miterlimit:10;}.cls-3{fill:#71c6d0;stroke-width:10px;}</style></defs><g id="Layer_2" data-name="Layer 2"><g id="Layer_1-2" data-name="Layer 1"><path class="cls-1" d="M852,673.7H127.9C57.2,673.7,0,638,0,593.91V79.79C0,35.68,57.3,0,127.9,0H852c70.7,0,127.9,35.75,127.9,79.79V593.91C980,638,922.7,673.7,852,673.7Z"/><path class="cls-2" d="M601.33,90.26H378.57a35.87,35.87,0,0,0-35.91,35.91V547.53a35.87,35.87,0,0,0,35.91,35.9H601.33a35.91,35.91,0,0,0,35.91-35.9V126.17A35.87,35.87,0,0,0,601.33,90.26Zm8.18,372.54a17.68,17.68,0,0,1-17.67,17.67h-208a17.68,17.68,0,0,1-17.67-17.67V134.56a17.68,17.68,0,0,1,17.67-17.67h208a17.68,17.68,0,0,1,17.67,17.67Z"/><circle class="cls-3" cx="489.95" cy="531.47" r="25.79"/></g></g></svg>