<svg xmlns="http://www.w3.org/2000/svg" viewBox="0 0 979.9 673.7"><defs><style>.cls-1{fill:#fff;}.cls-2,.cls-3{fill:#1b5659;}.cls-3,.cls-4{stroke:#1b5659;stroke-miterlimit:10;stroke-width:11px;}.cls-4,.cls-5{fill:#71c6d0;}</style></defs><g id="Layer_2" data-name="Layer 2"><g id="Layer_1-2" data-name="Layer 1"><path class="cls-1" d="M852,673.7H127.9C57.2,673.7,0,638,0,593.91V79.79C0,35.68,57.3,0,127.9,0H852c70.7,0,127.9,35.75,127.9,79.79V593.91C980,638,922.7,673.7,852,673.7Z"/><rect class="cls-2" x="253.95" y="164" width="472" height="339"/><path class="cls-3" d="M240.4,507.6H133.3a40,40,0,0,1-40-40V199.4a40,40,0,0,1,40-40H240.4Z"/><path class="cls-3" d="M741.6,507.6H848.7a40,40,0,0,0,40-40V199.4a40,40,0,0,0-40-40H741.6Z"/><circle class="cls-4" cx="166.9" cy="241.8" r="40"/><circle class="cls-4" cx="815.1" cy="406.4" r="40"/><circle class="cls-5" cx="166.5" cy="364.8" r="13.9"/><circle class="cls-5" cx="166.5" cy="434.2" r="13.9"/><circle class="cls-5" cx="198.8" cy="398.2" r="13.9"/><circle class="cls-5" cx="134.9" cy="398.2" r="13.9"/><circle class="cls-5" cx="814.7" cy="215.6" r="13.9"/><circle class="cls-5" cx="814.7" cy="285" r="13.9"/><circle class="cls-5" cx="847" cy="249" r="13.9"/><circle class="cls-5" cx="783.2" cy="249" r="13.9"/></g></g></svg>